<svg version="1.1" id="Layer_1" xmlns="http://www.w3.org/2000/svg" xmlns:xlink="http://www.w3.org/1999/xlink" x="0px" y="0px"
	 viewBox="0 0 123.8 131.4" enable-background="new 0 0 123.8 131.4" xml:space="preserve">
<g>
	<polygon fill="#BA2731" points="117.4,26.5 60.7,6.7 60.7,124.7 108.5,98.8 	"/>
	<polygon fill="#E72734" points="6.3,26.5 60.7,6.7 60.7,124.7 15,99.3 	"/>
	<g>
		<polygon fill="#FFFFFF" points="50.3,66.2 60.7,41.3 60.7,14.8 24.2,96 36.8,96 45.4,77.2 60.7,77.2 60.7,66.2 		"/>
		<polygon fill="#B4B3B4" points="60.7,14.8 60.7,41.3 73.9,66.2 60.7,66.2 60.7,77.2 78.6,77.2 86.8,96 99.6,96 		"/>
		<g>
			<path fill="#B4B3B4" d="M60.7,0L0,22l9.7,81.1l50.9,28.3l53.3-28.9l9.9-80.6L60.7,0z M108.5,98.8l-47.8,25.9L15,99.3L6.3,26.5
				L60.7,6.7l56.7,19.7L108.5,98.8z"/>
		</g>
	</g>
</g>
</svg>
