<svg version="1.1" id="Layer_1" xmlns="http://www.w3.org/2000/svg" xmlns:xlink="http://www.w3.org/1999/xlink" x="0px" y="0px"
	 viewBox="0 0 144.1 135.7" enable-background="new 0 0 144.1 135.7" xml:space="preserve">
<path fill="#67595D" d="M108.4,53.3c11.7-20.5,16-37.3,9.2-42.6c-6.8-5.3-22.5,2.7-40,19.2C65.3,9.3,52.6-2.8,44.7,0.6
	c-7.8,3.3-8.5,20.5-2.9,43.3C18.2,43.5,1.7,47.5,0.1,57.3c-1.3,8.3,13.4,18,36,24.9c-12,19.7-16.8,35.7-9.3,42
	c6.5,5.4,22.6-2.5,40.1-18.6c11.6,20.7,23.4,33.1,32.8,29.5c7.9-3,8.8-20.8,3.3-43.9c23.5-0.4,40-5.3,41-13.8
	C145.1,69.1,130.7,59.8,108.4,53.3z M84.1,95.8c-5.2,2.2-10.6,2.8-15.8,2.1c0,0,0-0.1-0.1-0.1c-1.6-3-3.2-6.2-4.8-9.5
	c-0.8-1.7-1.6-3.4-2.5-5.2c-1.4-3-2.7-6.1-4.1-9.3c-1.2-2.9-2.4-5.8-3.5-8.8c2-2.7,4-5.4,6.1-8.1c1.8-2.4,3.7-4.7,5.6-6.9
	c3.1,0.3,6.2,0.7,9.4,1.1c3.3,0.4,6.5,0.9,9.8,1.5c1.9,0.3,3.8,0.7,5.7,1c3.5,0.7,7,1.5,10.3,2.3C106.8,71.4,99.6,89.3,84.1,95.8z
	 M97.3,50.4c-3.2-0.7-6.4-1.4-9.8-2c-1.9-0.3-3.7-0.7-5.7-1c-2.2-0.3-4.4-0.7-6.7-1c-2.1-0.3-4.2-0.5-6.2-0.7
	c2.5-2.8,5.1-5.6,7.6-8.2C84.8,38.7,92.4,43.3,97.3,50.4z M63.2,45.1c-3.6-0.3-7.1-0.6-10.5-0.8c2.3-1.9,4.8-3.5,7.7-4.7
	c3.2-1.4,6.6-2.1,9.9-2.3C67.9,39.7,65.5,42.3,63.2,45.1z M48,49.1c0.1-0.1,0.1-0.2,0.2-0.3c3.6,0.1,7.3,0.4,11.2,0.7
	c-1.2,1.5-2.4,3-3.6,4.5c-1.5,1.9-2.9,3.8-4.4,5.7C50.2,56.2,49,52.6,48,49.1z M44.7,54.5c1,3.2,2.1,6.5,3.3,9.8
	c-2.1,2.8-4,5.7-5.9,8.4C41.1,66.4,42,60.1,44.7,54.5z M43.9,78.9c1.9-3,4-6.1,6.2-9.2c0.8,2,1.6,4,2.4,6c0.9,2.2,1.8,4.3,2.8,6.4
	c0.8,1.8,1.6,3.6,2.4,5.3c1.5,3.1,2.9,6.2,4.4,9.1c-7.8-2.8-14.5-8.7-17.9-16.9C44,79.3,43.9,79.1,43.9,78.9z M114.8,14.3
	c5.3,4.1,0.9,18.1-9.6,35.9c-4.9-9.2-13.3-15.7-22.8-18.4C96.6,18.4,109.7,10.3,114.8,14.3z M46.4,4.8c6.2-2.6,16.2,7.9,26.5,25.6
	c-5.1-0.1-10.2,0.8-15.2,2.9c-4.6,1.9-8.5,4.7-11.8,8C41.1,22.5,40.5,7.3,46.4,4.8z M4.6,58.1c0.4-6.3,14.8-9.5,35.5-9.4
	c-5,8.4-6.6,18.7-3.9,28.5C16.7,71.2,4.2,63.5,4.6,58.1z M29.8,120.7c-5.2-3.6-0.6-17.3,9.8-34.9c4.9,8.9,13.2,15.2,22.5,17.8
	C47.1,117,34.2,123.7,29.8,120.7z M98.1,130.8c-5.6,2.8-15.6-8-25.9-25.8c4.8,0,9.8-0.9,14.5-2.9c4.7-2,8.7-4.8,12.1-8.2
	C103.3,113.7,102.9,128.4,98.1,130.8z M139.5,76.8c-0.8,6.6-14.9,10-35.3,10.1c5.1-8.5,6.7-18.9,4-28.9
	C126.9,63.4,140.3,70.4,139.5,76.8z"/>
</svg>
