<?xml version="1.0" encoding="UTF-8"?>
<svg width="500px" height="634px" viewBox="0 0 500 634" version="1.1" xmlns="http://www.w3.org/2000/svg" xmlns:xlink="http://www.w3.org/1999/xlink">
    <!-- Generator: Sketch 50.2 (55047) - http://www.bohemiancoding.com/sketch -->
    <title>jquery</title>
    <desc>Created with Sketch.</desc>
    <defs></defs>
    <g id="Page-1" stroke="none" stroke-width="1" fill="none" fill-rule="evenodd">
        <g id="jquery" fill-rule="nonzero">
            <g id="Group-2" transform="translate(40.000000, 515.000000)" fill="#131B28">
                <path d="M119.9,46.171 L119.901,46.166 L116.549,58.046 L119.9,46.171 Z M137.14,71.962 L133.447,71.94 L137.14,71.962 Z M136.19,89.703 L136.194,89.703 L114.063,89.783 L136.19,89.703 Z M140.83,71.984 L137.135,71.962 L140.83,71.984 Z M138.13,88.195 L141.984,73.493 L138.13,88.198 L138.13,88.195 Z M219.61,20.49 L212.429,54.25 L219.61,20.49 Z M201.15,20.49 L195.699,45.71 L201.15,20.488 L201.15,20.49 Z" id="Shape"></path>
                <path d="M218.38,18.971 L203.024,18.971 C202.172,18.971 201.327,19.655 201.144,20.488 L195.693,45.71 L190.241,70.933 C190.06,71.765 189.216,72.447 188.364,72.447 L177.495,72.447 C166.742,72.447 167.985,65.009 170.187,54.82 L170.253,54.512 L170.494,53.228 L170.54,52.986 L171.03,50.371 L171.556,47.568 C171.716,46.723 171.958,45.488 172.118,44.712 L174.596,32.603 L177.076,20.494 C177.247,19.659 176.688,18.973 175.836,18.973 L160.074,18.973 C159.222,18.973 158.379,19.659 158.204,20.492 L154.815,36.571 L151.426,52.648 C151.423,52.655 151.422,52.665 151.421,52.672 L151.106,54.166 C147.203,71.988 148.238,88.983 169.454,89.515 C169.801,89.525 170.069,89.528 170.069,89.528 L203.371,89.528 C204.223,89.528 205.066,88.844 205.245,88.009 L212.426,54.252 L219.608,20.492 C219.784,19.655 219.232,18.972 218.38,18.971 Z M279.64,72.621 C280.494,72.621 281.051,73.305 280.88,74.14 L279.389,81.428 L279.64,72.621 Z M277.9,88.719 L279.391,81.427 L277.899,88.722 L277.9,88.719 Z M276.03,90.253 L276.038,90.251 C271.518,90.287 257.938,90.391 247.731,90.391 C260.153,90.391 276.029,90.254 276.03,90.253 Z M238.57,63.234 C238.558,62.436 239.466,61.061 240.32,61.061 L238.402,61.029 C237.537,69.721 238.57,63.234 238.57,63.234 Z" id="Shape"></path>
                <path d="M249.13,90.387 C249.032,90.387 248.932,90.387 248.834,90.389 C248.932,90.387 249.032,90.387 249.13,90.387 Z M279.64,72.621 C280.494,72.621 281.051,73.305 280.88,74.14 L279.389,81.428 L279.146,82.616 L279.64,72.621 Z M256.4,90.37 L256.338,90.37 L256.4,90.37 Z M252.63,90.382 L252.411,90.382 L252.63,90.382 Z M251.48,90.385 C251.358,90.385 251.239,90.385 251.119,90.387 C251.239,90.385 251.358,90.385 251.48,90.385 Z M250.31,90.387 L249.993,90.387 L250.31,90.387 Z M252.41,90.382 L251.479,90.384 L252.41,90.382 Z M256.34,90.37 C255.097,90.375 253.857,90.38 252.635,90.383 C253.857,90.381 255.099,90.375 256.34,90.37 Z M277.9,88.723 L279.149,82.617 L277.899,88.727 L277.9,88.723 Z M251.12,90.387 L250.309,90.387 L251.12,90.387 Z M248.83,90.389 L247.733,90.389 L248.83,90.389 Z M249.99,90.387 L249.126,90.387 L249.99,90.387 Z M25.36,63.417 L27.746,52.843 L25.018,64.93 L22.401,77.242 L24.695,66.449 C24.871,65.614 25.172,64.249 25.36,63.417 Z M53.91,18.793 L37.046,18.793 C36.192,18.793 35.342,19.474 35.151,20.304 L33.551,27.362 L31.952,34.423 C31.764,35.253 32.307,35.934 33.16,35.934 L50.155,35.934 C51.008,35.934 51.854,35.253 52.038,34.42 L53.583,27.362 L55.129,20.309 L55.129,20.307 C55.312,19.475 54.764,18.793 53.91,18.793 Z M50.24,42.272 L50.24,42.27 L45.294,65.152 L50.24,42.272 Z M1.25,118.09 C1.25,118.09 9.751,118.199 15.154,118.199 C11.05,118.199 4.269,118.124 1.243,118.088 L1.25,118.09 Z M30.13,42.269 L27.742,52.843 L30.13,42.269 Z" id="Shape"></path>
                <path d="M49.02,40.756 L32.023,40.756 C31.171,40.756 30.319,41.437 30.131,42.27 L27.743,52.844 L25.357,63.418 C25.169,64.25 24.869,65.615 24.692,66.45 L22.398,77.243 L20.106,88.036 C19.8803884,89.0433006 19.6074188,90.0394061 19.288,91.021 C19.288,91.021 16.113,100.469 10.775,100.362 C10.547,100.357 10.327,100.355 10.108,100.349 C7.521,100.3 5.489,100.264 5.489,100.264 L5.485,100.264 C4.634,100.251 3.779,100.915 3.58,101.743 L1.817,109.153 L0.056,116.559 C-0.141,117.387 0.393,118.071 1.241,118.085 C4.268,118.121 11.048,118.197 15.153,118.197 C28.487,118.197 35.516,110.809 40.022,89.55 L45.295,65.152 L50.241,42.269 C50.421,41.438 49.871,40.756 49.02,40.756 Z M290.47,89.525 C289.617,89.525 289.065,88.841 289.244,88.005 L302.03,28.115 L290.47,89.525 Z M308.24,88.004 L313.411,62.442 L308.24,88.004 Z" id="Shape"></path>
                <path d="M289.43,88.766 C289.326,88.349 289.387,87.327 289.568,86.491 L295.636,58.063 L289.243,88.007 C289.063,88.842 289.616,89.526 290.469,89.526 L292.022,89.526 C291.168,89.525 289.532,89.184 289.43,88.766 Z M307.23,89.184 C306.766,89.372 305.687,89.526 304.834,89.526 L306.387,89.526 C307.24,89.526 308.076,88.842 308.245,88.005 L308.553,86.486 C308.382,87.32 307.695,88.995 307.23,89.184 Z M310.83,75.223 L313.112,63.941 C313.111,63.948 313.11,63.958 313.108,63.963 L310.83,75.223 Z M361.28,32.128 L361.984,35.038 C362.178,35.871 361.64,36.547 360.79,36.549 L361.28,32.128 Z M308.55,86.486 L310.826,75.224 L308.55,86.486 Z M360.579,29.147 L361.276,32.128 L360.579,29.147 Z M313.11,63.942 C313.28,63.107 313.561,61.754 313.738,60.927 L316.176,49.506 L313.415,62.443 L313.11,63.942 Z M302.24,27.135 C302.071,27.941 301.853,28.959 301.71,29.633 L295.642,58.063 L302.035,28.117 L302.24,27.135 Z" id="Shape"></path>
                <path d="M361.98,35.038 L361.276,32.128 L360.579,29.147 L360.226,27.638 C358.845,22.275 354.792,19.179 345.993,19.179 L332.293,19.164 L319.676,19.149 L305.48,19.149 C304.628,19.149 303.785,19.83 303.609,20.665 L303.608,20.665 L302.98,23.631 L302.24,27.134 L302.033,28.115 L295.64,58.061 L289.572,86.489 C289.391,87.325 289.331,88.347 289.434,88.764 C289.537,89.182 291.172,89.524 292.026,89.524 L304.834,89.524 C305.688,89.524 306.767,89.37 307.23,89.182 C307.695,88.994 308.382,87.319 308.552,86.484 L310.828,75.222 L313.107,63.962 L313.111,63.94 L313.415,62.441 L316.177,49.504 L318.615,38.078 C318.796,37.248 319.636,36.569 320.486,36.567 L360.786,36.547 C361.636,36.547 362.175,35.87 361.98,35.038 Z" id="Shape"></path>
                <path d="M413.86,8.725 C413.006,8.731 411.612,8.736 410.758,8.736 L397.859,8.736 C397.005,8.736 395.914,9.312 395.432,10.016 L366.91,51.803 C366.428,52.509 365.879,52.404 365.689,51.574 L363.59,42.367 C363.401,41.534 362.546,40.856 361.694,40.856 L343.356,40.856 C342.503,40.856 341.998,41.525 342.231,42.345 L350.448,71.129 C350.682,71.949 350.699,73.297 350.488,74.123 L346.907,88.054 C346.694,88.881 347.219,89.558 348.073,89.558 L366.195,89.558 C367.048,89.558 367.919,88.881 368.131,88.054 L371.714,74.123 C371.925,73.297 372.518,72.062 373.032,71.381 L419.338,9.922 C419.852,9.241 419.573,8.687 418.722,8.693 L413.86,8.725 Z M268.18,44.774 L268.179,44.757 C268.072,45.682 267.218,46.361 266.367,46.361 L243.119,46.361 C242.315,46.361 241.906,45.814 242.025,45.14 C242.032,45.12 242.035,45.103 242.046,45.086 C242.046,45.086 242.038,45.088 242.031,45.093 C242.036,45.066 242.036,45.041 242.044,45.015 L242.15,44.619 C244.371,38.716 248.893,34.841 257.393,34.841 C266.962,34.842 268.83,39.518 268.18,44.774 Z M261.36,17.94 C231.519,17.94 224.448,36.053 220.481,54.334 C216.514,72.967 216.856,90.389 247.734,90.389 L248.831,90.389 C248.929,90.387 249.028,90.387 249.126,90.387 L251.118,90.387 C251.238,90.385 251.357,90.385 251.479,90.385 L252.41,90.383 L252.628,90.383 C253.851,90.381 255.091,90.375 256.333,90.371 L256.395,90.371 C264.55,90.339 272.729,90.277 276.041,90.251 C276.889,90.238 277.718,89.555 277.892,88.728 L279.142,82.618 L279.385,81.429 L280.877,74.142 C281.048,73.306 280.489,72.622 279.637,72.622 L251.875,72.622 C240.834,72.622 237.556,69.688 238.764,61.062 L283.141,61.062 L283.137,61.067 C283.148,61.067 283.158,61.062 283.167,61.062 C283.872,61.049 284.524,60.564 284.783,59.917 C284.832,59.792 284.874,59.663 284.89,59.529 L284.885,59.534 C291.474,34.68 289.584,17.942 261.357,17.942 L261.36,17.94 Z M120.32,44.679 L119.9,46.166 L119.899,46.171 L116.548,58.046 L113.198,69.919 C112.967,70.739 112.08,71.41 111.225,71.41 L93.49,71.41 C80.038,71.41 76.761,60.889 80.038,45.368 C83.312,29.494 89.735,19.626 102.976,18.627 C121.069,17.263 124.689,29.989 120.32,44.679 Z M132.483,70.497 C132.483,70.497 140.845,50.194 142.745,38.466 C145.334,22.767 137.474,0 107.114,0 C76.927,0 63.819,21.737 58.817,45.367 C53.816,69.168 60.369,90.042 90.384,89.871 L114.063,89.783 L136.194,89.703 C137.047,89.695 137.918,89.019 138.135,88.196 L141.989,73.491 C142.204,72.666 141.683,71.987 140.831,71.982 L137.136,71.961 L133.443,71.939 C132.717,71.934 132.302,71.465 132.39,70.842 C132.406343,70.7231095 132.436895,70.6066099 132.481,70.495 L132.483,70.497 Z" id="Shape"></path>
                <path d="M281.92,56.908 C281.92,57.4702259 281.464226,57.926 280.902,57.926 C280.339774,57.926 279.884,57.4702259 279.884,56.908 C279.884,56.3457741 280.339774,55.89 280.902,55.89 C281.464226,55.89 281.92,56.3457741 281.92,56.908 Z" id="Shape"></path>
            </g>
            <g id="Group" fill="#0868AC">
                <path d="M31.7469027,113.251428 C-12.5097345,176.822363 -7.00353982,259.528257 26.8035398,327.073703 C27.6053097,328.697468 28.4548673,330.284088 29.2831858,331.881321 C29.8141593,332.889541 30.3079646,333.9296 30.8654867,334.921901 C31.1787611,335.51622 31.5238938,336.105233 31.8530973,336.67302 C32.4265487,337.744917 33.0212389,338.774363 33.6159292,339.819728 C34.6619469,341.676976 35.739823,343.512998 36.8389381,345.354327 C37.4495575,346.362547 38.0548673,347.376073 38.6814159,348.384294 C39.8973451,350.352976 41.1504425,352.295127 42.4300885,354.242583 C42.9610619,355.070385 43.4761062,355.898187 44.0230088,356.704763 C45.7858407,359.331442 47.5911504,361.947508 49.4442478,364.531736 L49.5982301,364.738686 C49.8955752,365.152587 50.2141593,365.550569 50.5168142,365.96447 C52.1256637,368.182554 53.7823009,370.3688 55.460177,372.53382 C56.0761062,373.319171 56.6973451,374.115134 57.3238938,374.900484 C59.396183,377.493173 61.5007717,380.059913 63.6371681,382.600103 C65.7573244,385.102883 67.9204774,387.568967 70.1256637,389.997255 C70.2212389,390.103383 70.2955752,390.161754 70.3699115,390.267883 C74.7944164,395.065484 79.3683447,399.723273 84.0849558,404.234385 C84.7964602,404.908301 85.4973451,405.598136 86.1982301,406.240213 C88.5540169,408.461909 90.9508904,410.639687 93.3876106,412.772418 C93.7964602,413.133255 94.2159292,413.478172 94.619469,413.82309 C96.7274336,415.653806 98.8831858,417.468602 101.044248,419.246253 C101.925664,419.96262 102.823009,420.663068 103.709735,421.368822 C105.477876,422.785637 107.267257,424.181226 109.072566,425.555589 L111.934513,427.731222 C113.925664,429.190488 115.927434,430.633835 117.950442,432.045343 C118.693805,432.575985 119.4,433.090708 120.143363,433.594818 C120.350442,433.738092 120.536283,433.886672 120.743363,434.024639 C122.660177,435.345938 124.624779,436.614172 126.584071,437.887714 C127.428319,438.444888 128.261947,439.028594 129.116814,439.56985 C132.122124,441.474855 135.180531,443.353328 138.265487,445.168125 C139.099115,445.651009 139.948673,446.117974 140.79292,446.595552 C143.065487,447.906239 145.343363,449.185086 147.658407,450.448015 C148.906195,451.12193 150.19646,451.753394 151.454867,452.400778 C153.090265,453.255112 154.709735,454.125365 156.371681,454.953167 C156.743363,455.133585 157.136283,455.314004 157.507965,455.499728 C158.171681,455.82342 158.846018,456.131193 159.515044,456.470804 C162.63605,457.971211 165.78161,459.420062 168.950442,460.816763 C171.950442,462.122143 174.976991,463.379765 178.030088,464.584323 C178.762832,464.886789 179.500885,465.168029 180.238938,465.454576 C183.433654,466.688308 186.648239,467.870028 189.881416,468.999266 C193.040708,470.103002 196.226549,471.121835 199.438938,472.124749 C200.20354,472.347618 200.973451,472.591714 201.748673,472.814583 C205.014159,473.801578 208.247788,474.974297 211.60885,475.595149 C425.649558,514.602657 487.821239,347.052382 487.821239,347.052382 C435.60531,415.038261 342.918584,432.963354 255.100885,413.005901 C251.776991,412.252389 248.548673,411.217637 245.299115,410.257174 C241.312337,409.074397 237.352087,407.804086 233.421239,406.447163 L232.125664,405.980198 C229.337357,404.993015 226.56361,403.965228 223.80531,402.897167 C223.030088,402.584088 222.249558,402.292235 221.474336,401.979156 C218.457712,400.789114 215.462546,399.545445 212.490265,398.248741 C211.884956,397.988727 211.295575,397.712793 210.695575,397.458084 C207.41901,395.97625 204.162091,394.451406 200.925664,392.883949 C198.955752,391.923486 197.012389,390.904653 195.063717,389.901739 C193.762832,389.217211 192.440708,388.569828 191.150442,387.853461 C188.785692,386.582704 186.443729,385.270042 184.125664,383.916095 C183.345133,383.475662 182.543363,383.051149 181.757522,382.594796 C178.676414,380.775965 175.624694,378.907864 172.60354,376.991215 C171.775221,376.460572 170.957522,375.898092 170.134513,375.346224 C167.942312,373.93844 165.772138,372.496687 163.624779,371.02149 C162.907965,370.543912 162.223009,370.023883 161.522124,369.551611 C159.451327,368.092345 157.40708,366.606547 155.368142,365.104829 C154.444248,364.420301 153.536283,363.72516 152.638938,363.040631 C149.93724,360.964403 147.259191,358.857618 144.60531,356.720683 C142.273165,354.811621 139.968504,352.869272 137.692035,350.894231 L136.927434,350.257461 C134.470565,348.092794 132.047267,345.890367 129.658407,343.650965 C128.962832,342.987662 128.288496,342.345585 127.60885,341.682283 C125.838465,340.004973 124.096623,338.297829 122.384071,336.561585 C121.699115,335.877057 121.00885,335.203141 120.334513,334.518613 C118.157522,332.289916 116.023009,330.02938 113.925664,327.742312 L113.60708,327.408007 C111.392422,324.983533 109.223891,322.517374 107.102655,320.010855 C106.529204,319.32102 105.966372,318.663024 105.39823,317.989108 C103.812569,316.082557 102.253131,314.154376 100.720354,312.205108 C100.141887,311.499523 99.5701795,310.78843 99.0053097,310.071927 C97.1628319,307.684037 95.3628319,305.301453 93.6,302.881725 C44.840708,236.424095 27.3292035,144.750349 66.2920354,69.4681394" id="Shape"></path>
                <path d="M169.125664,59.6937101 C137.123894,105.721615 138.860177,167.339787 163.826549,216.020903 C168.006158,224.204223 172.735565,232.095242 177.982301,239.639787 C182.776991,246.506297 188.092035,254.678187 194.458407,260.202172 C196.768142,262.743949 199.178761,265.216741 201.642478,267.652389 C202.263717,268.28916 202.900885,268.894092 203.532743,269.52025 C205.922124,271.839156 208.353982,274.120917 210.870796,276.333695 C210.976991,276.413292 211.067257,276.514114 211.168142,276.59371 C211.2,276.620242 211.226549,276.630855 211.242478,276.662694 C214.019469,279.098341 216.892035,281.44378 219.812389,283.746767 C220.460177,284.240264 221.097345,284.754987 221.755752,285.264404 C224.676106,287.503714 227.660177,289.705879 230.718584,291.807222 C230.814159,291.870899 230.888496,291.934576 230.978761,292.00356 C232.327434,292.93749 233.702655,293.802437 235.072566,294.699222 C235.725664,295.123736 236.346903,295.580088 237.010619,295.97807 C239.19292,297.378965 241.40177,298.742716 243.653097,300.048095 C243.976991,300.244433 244.279646,300.408932 244.59292,300.594657 C246.530973,301.709006 248.495575,302.807435 250.465487,303.868719 C251.155752,304.256088 251.851327,304.595699 252.557522,304.956536 C253.916814,305.672903 255.281416,306.394576 256.661947,307.079105 C256.869027,307.185233 257.081416,307.275442 257.283186,307.365651 C260.102655,308.755934 262.943363,310.093152 265.847788,311.356081 C266.469027,311.632015 267.111504,311.87611 267.738053,312.130818 C270.063717,313.117813 272.40531,314.078275 274.762832,314.980367 C275.761062,315.357123 276.775221,315.723266 277.768142,316.084103 C279.907965,316.87476 282.058407,317.601739 284.219469,318.328719 C285.20177,318.641798 286.157522,318.960183 287.139823,319.26265 C290.214159,320.217806 293.256637,321.422363 296.463717,321.958312 C461.718584,349.318224 499.874336,222.160433 499.874336,222.160433 C465.477876,271.664044 398.877876,295.277622 327.812389,276.843112 C323.718829,275.766423 319.660183,274.561269 315.642478,273.229439 C312.444642,272.195538 309.275344,271.075474 306.138053,269.870473 C303.772785,268.965831 301.423744,268.01937 299.092035,267.031538 C298.460177,266.76091 297.817699,266.511508 297.19646,266.230268 C294.292417,264.965372 291.419031,263.63131 288.578761,262.229226 C287.118584,261.518165 285.684956,260.764653 284.256637,260.027061 L281.761062,258.742906 C279.921683,257.744507 278.098439,256.716697 276.292035,255.659875 C275.861947,255.41578 275.415929,255.176991 274.980531,254.922283 C272.745133,253.611596 270.541593,252.269072 268.359292,250.878789 C267.684956,250.448969 267.037168,249.98731 266.362832,249.546877 C264.92167,248.614701 263.489742,247.668343 262.067257,246.707941 C259.040293,244.601438 256.062505,242.425222 253.136283,240.181042 C252.461947,239.6504 251.787611,239.130371 251.123894,238.599728 C220.014159,214.05222 195.355752,180.510327 183.631858,142.473894 C171.345133,103.025952 173.99469,58.7438606 195.281416,22.8087706" id="Shape"></path>
                <path d="M284.670796,19.6779817 C265.80531,47.4252624 263.952212,81.8904734 277.040708,112.540367 C290.851327,145.068734 319.141593,170.592624 352.157522,182.691266 C353.516814,183.200683 354.881416,183.651728 356.256637,184.118694 C356.856637,184.299112 357.456637,184.511369 358.067257,184.686481 C360.010619,185.296719 361.938053,186.00778 363.950442,186.384536 C455.19823,204.001857 479.946903,139.592506 486.536283,130.10993 C464.856637,161.306385 428.421239,168.793747 383.718584,157.952727 C380.061216,157.016204 376.451634,155.902306 372.902655,154.614987 C368.530574,153.063793 364.243227,151.283678 360.058407,149.282033 C352.11491,145.462307 344.571537,140.861961 337.539823,135.549013 C297.536283,105.217505 272.686726,47.3509725 298.789381,0.224638532 L284.670796,19.6779817 Z" id="Shape"></path>
            </g>
        </g>
    </g>
</svg>