<?xml version="1.0" encoding="UTF-8"?>
<svg width="963px" height="429px" viewBox="0 0 963 429" version="1.1" xmlns="http://www.w3.org/2000/svg" xmlns:xlink="http://www.w3.org/1999/xlink">
    <!-- Generator: Sketch 50.2 (55047) - http://www.bohemiancoding.com/sketch -->
    <title>less</title>
    <desc>Created with Sketch.</desc>
    <defs>
        <linearGradient x1="50%" y1="-4.71911798e-06%" x2="50%" y2="100%" id="linearGradient-1">
            <stop stop-color="#2A4F84" offset="14.97%"></stop>
            <stop stop-color="#294E82" offset="38.839999%"></stop>
            <stop stop-color="#172E4E" offset="100%"></stop>
        </linearGradient>
    </defs>
    <g id="Page-1" stroke="none" stroke-width="1" fill="none" fill-rule="evenodd">
        <g id="less" transform="translate(3.000000, 2.000000)" fill-rule="nonzero">
            <path d="M907.29375,342.69005 C907.29375,387.64805 870.50975,424.43205 825.55175,424.43205 L138.50175,424.43205 C93.54375,424.43205 56.75975,387.64805 56.75975,342.69005 L56.75975,82.36604 C56.75975,37.40804 93.54375,0.62404 138.50175,0.62404 L825.55175,0.62404 C870.50975,0.62404 907.29375,37.40804 907.29375,82.36604 L907.29375,342.69005 Z" id="path19" fill="url(#linearGradient-1)"></path>
            <path d="M763.56975,206.96705 C799.47875,219.53005 817.42575,241.05505 817.42575,271.51005 C817.42575,291.55605 809.98275,307.46705 795.12975,319.23505 C780.29175,331.01105 759.12475,338.31905 731.57275,338.31905 C704.02075,338.31905 678.53575,330.33605 655.06275,317.23105 C655.31675,310.28105 657.15375,302.65605 660.52575,294.37905 C663.89775,286.10205 667.88875,279.52605 672.46175,274.72305 C694.03475,285.93405 712.80775,291.54905 728.74275,291.54905 C736.27375,291.54905 742.10075,290.28505 746.15675,287.74005 C750.21975,285.20405 752.23975,281.80005 752.23975,277.52305 C752.23975,269.48405 746.01375,263.47205 733.60175,259.46505 L711.30575,251.04405 C677.57575,238.75105 660.70975,218.72105 660.70975,190.89805 C660.70975,170.58205 667.79475,154.48005 681.96475,142.56805 C696.13475,130.67305 715.23375,120.43105 739.24775,120.43105 C751.12775,120.43105 764.20775,122.10105 778.51975,125.44105 C792.81675,128.78905 804.56175,137.03505 813.73775,141.56605 C814.27875,149.05605 812.77575,157.27805 809.28575,166.23105 C805.77075,175.19205 801.46175,181.53705 796.31675,185.28305 C773.63175,175.12105 754.75475,170.04005 739.63075,170.04005 C734.21575,170.04005 730.13675,171.24105 727.27375,173.65805 C724.44275,176.06805 723.05075,179.13605 723.05075,182.88205 C723.05075,189.29905 728.17175,194.37205 738.43675,198.11705 L763.56975,206.96705 Z" id="path21" fill="#F6F6F6"></path>
            <path d="M584.21475,206.96705 C620.12375,219.53005 638.06275,241.05505 638.06275,271.51005 C638.06275,291.55605 630.61975,307.46705 615.79075,319.23505 C600.93775,331.01105 579.76275,338.31905 552.21875,338.31905 C524.69075,338.31905 499.17375,330.33605 475.70875,317.23105 C475.96275,310.28105 477.79975,302.65605 481.17875,294.37905 C484.55075,286.10205 488.52575,279.52605 493.11475,274.72305 C514.71175,285.93405 533.47675,291.54905 549.40375,291.54905 C556.94175,291.54905 562.76975,290.28505 566.80975,287.74005 C570.85775,285.20405 572.89275,281.80005 572.89275,277.52305 C572.89275,269.48405 566.66675,263.47205 554.25475,259.46505 L531.97375,251.04405 C498.23575,238.75105 481.36275,218.72105 481.36275,190.89805 C481.36275,170.58205 488.44775,154.48005 502.63275,142.56805 C516.79475,130.67305 535.88575,120.43105 559.89975,120.43105 C571.77175,120.43105 584.88375,122.10105 599.16475,125.44105 C613.47775,128.78905 625.20675,137.03505 634.38975,141.56605 C634.93075,149.05605 633.42775,157.27805 629.93775,166.23105 C626.43075,175.19205 622.11375,181.53705 616.97675,185.28305 C594.28275,175.12105 575.40575,170.04005 560.27475,170.04005 C554.86775,170.04005 550.77275,171.24105 547.92575,173.65805 C545.10275,176.06805 543.69575,179.13605 543.69575,182.88205 C543.69575,189.29905 548.82375,194.37205 559.08975,198.11705 L584.21475,206.96705 Z" id="path23" fill="#F6F6F6"></path>
            <path d="M453.41975,209.79705 C453.41975,197.50405 451.46375,186.14105 447.55175,175.70805 C443.64775,165.27605 438.04175,156.33005 430.75775,148.84005 C423.46575,141.35005 414.63175,135.47305 404.24675,131.19505 C393.84575,126.92505 382.17275,120.48405 369.21975,120.48405 C353.83275,120.48405 340.40375,127.45005 328.93775,132.80105 C317.47175,138.14505 308.02475,145.49205 300.60575,154.85105 C293.17075,164.21705 287.63675,175.23905 283.99475,187.93705 C280.35275,200.63605 278.53175,214.47105 278.53175,229.43605 C278.53175,244.92605 280.01075,259.25405 282.98475,272.35005 C285.95075,285.43005 291.01475,296.78505 298.16475,306.42305 C305.32075,316.04405 314.63175,323.52705 326.10575,328.86205 C337.57975,334.20605 351.82075,338.30905 368.82175,338.30905 C400.12675,338.30905 426.57375,329.24405 448.16975,314.01705 C446.03075,298.52705 440.51275,286.21005 431.64675,277.12105 C420.61775,281.26305 410.86075,284.22905 402.40075,286.05105 C393.93275,287.84905 386.46575,288.75505 380.01775,288.75505 C367.11175,288.75505 357.82475,285.47105 352.18775,278.84005 C346.55675,272.23205 343.46775,264.41605 342.92075,252.54405 L448.18575,252.54405 C451.66275,241.30105 453.41975,226.10605 453.41975,209.79705 Z M342.51975,212.57305 C343.32175,198.92805 345.81175,184.32905 349.95475,178.31805 C354.10575,172.29905 360.45875,169.29305 369.03775,169.29305 C377.87275,169.29305 384.50375,172.49005 388.91675,178.90705 C393.33875,185.32405 395.54775,198.25305 395.54775,208.14405 L395.55575,212.57305 L342.51975,212.57305 Z" id="path25" fill="#F6F6F6"></path>
            <path d="M928.48575,239.25005 C917.04375,249.24505 910.40375,263.62905 910.40375,282.43505 L910.40375,352.47205 C910.40375,375.75405 903.24675,393.46205 887.08175,405.63605 C870.93175,417.79405 852.10275,423.81305 830.60975,424.39305 L817.87175,424.29705 L817.87175,389.39805 C829.09975,386.12205 833.71075,382.31405 838.17975,377.98805 C846.27475,370.67305 852.47675,358.76905 852.47675,342.23805 L852.47675,285.69505 C852.77875,266.47605 854.25775,251.41605 861.25475,240.53805 C868.27675,229.66005 881.94475,220.15005 902.26075,211.93605 C879.82175,201.66305 864.75275,188.24805 857.07175,171.70105 C852.55575,161.87305 852.46775,148.61005 852.46775,131.92705 L852.46775,80.07504 C852.46775,62.94704 846.86175,50.94904 839.96775,44.10204 C835.48375,39.63304 830.26675,36.06304 817.85475,33.36804 L817.85475,0.605813819 C833.03475,0.76604 840.69975,0.59204 849.54175,0.60704 C863.15475,0.49604 874.55775,7.93904 884.48075,15.69104 C895.28775,24.19104 902.96775,35.68204 907.46875,50.14504 C910.02875,58.50204 910.39475,66.48604 910.39475,74.08704 L910.39475,134.05805 C910.39475,155.24005 916.65275,170.98505 927.34775,181.26605 C933.37575,187.23005 941.88375,192.68405 956.49075,197.60705 L956.49075,224.69805 C943.54675,228.27705 935.41975,233.12705 928.48575,239.25005 Z" id="path27" stroke="#404040" stroke-width="5.15089989" fill="#F6F6F6"></path>
            <path d="M123.28675,0.62504 L123.28675,0.67204 C118.93775,0.64804 115.00075,0.63204 111.85275,0.64004 C98.23175,0.52104 86.82975,7.96404 76.91475,15.72404 C66.09275,24.22404 56.82975,35.31704 53.92775,50.17804 C52.27375,58.89304 52.62375,66.51004 52.62375,74.12004 L52.62375,134.09105 C52.62375,155.26605 44.74375,171.00205 34.05675,181.30005 C28.03675,187.26305 15.18675,192.70905 0.57175,197.63105 L0.57175,224.72105 C13.52475,228.29205 25.99375,233.12605 32.91075,239.26505 C44.36075,249.26805 52.61375,263.66105 52.61375,282.46505 L52.61375,352.50205 C52.61375,375.76905 58.16475,393.49305 74.31375,405.65005 C90.46375,417.80005 109.28475,423.84305 130.77775,424.43105 L145.16175,424.33505 L145.16175,389.41205 C133.94175,386.12805 127.70875,382.31905 123.21575,378.00905 C115.12875,370.68505 110.54875,358.79005 110.54875,342.26705 L110.54875,285.71605 C110.23875,266.48205 107.13775,251.43705 100.13275,240.55105 C93.12775,229.68905 79.45875,220.16305 59.11875,211.95705 C81.56675,201.67605 96.62675,188.26905 104.30775,171.73005 C108.83275,161.89405 110.54975,148.63105 110.54975,131.94905 L110.54975,80.09704 C110.54975,62.96904 114.52475,50.97104 121.41175,44.11704 C125.14875,40.39604 131.79575,37.33404 141.02875,34.85404 L155.62775,34.95604 C155.62775,22.39004 155.62775,14.52404 155.62775,0.62204 L123.28875,0.62204 L123.28875,0.62504 L123.28675,0.62504 Z" id="path29" stroke="#404040" stroke-width="5.15089989" fill="#F6F6F6"></path>
            <path d="M257.88375,284.76405 L246.95075,284.76405 C235.06375,284.76405 230.58675,278.51405 230.58675,265.95905 L230.58675,35.21404 C230.58675,21.33904 226.57975,11.59804 221.44975,5.98504 C216.32075,0.38704 207.41575,0.44304 194.73275,0.44304 L170.04275,0.44304 L167.13275,0.38704 L167.13275,0.62504 L167.10875,34.96804 L167.10875,277.12405 C167.10875,296.38205 171.43475,310.47305 179.13075,319.44205 C186.83575,328.39505 199.85275,332.86405 218.20475,332.86405 C230.89575,332.86405 245.33575,331.52805 261.52475,328.84805 C262.33575,326.14405 262.74175,320.35605 262.74175,311.47405 C262.74175,302.56805 261.12075,293.68605 257.88375,284.76405 Z" id="path31" fill="#F6F6F6"></path>
        </g>
    </g>
</svg>