<?xml version="1.0" encoding="UTF-8"?>
<svg width="430px" height="531px" viewBox="0 0 430 531" version="1.1" xmlns="http://www.w3.org/2000/svg" xmlns:xlink="http://www.w3.org/1999/xlink">
    <!-- Generator: Sketch 50.2 (55047) - http://www.bohemiancoding.com/sketch -->
    <title>mongodb</title>
    <desc>Created with Sketch.</desc>
    <defs></defs>
    <g id="Page-1" stroke="none" stroke-width="1" fill="none" fill-rule="evenodd">
        <g id="mongodb" fill-rule="nonzero">
            <g id="Group-2" transform="translate(0.000000, 440.000000)">
                <path d="M394.713,5.463 C394.253,5.555 393.791,6.57 393.791,7.123 C393.699,10.815 393.607,20.597 393.607,27.241 C393.607,27.426 393.883,27.795 394.16,27.795 C395.544,27.887 398.866,27.979 401.727,27.979 C405.695,27.979 408.002,27.426 409.295,26.873 C412.616,25.211 414.185,21.612 414.185,17.643 C414.185,8.693 407.91,5.278 398.589,5.278 C397.943,5.186 396.099,5.186 394.713,5.463 Z M418.523,46.713 C418.523,37.577 411.786,32.501 399.605,32.501 C399.051,32.501 395.175,32.409 394.252,32.593 C393.975,32.686 393.607,32.871 393.607,33.148 C393.607,39.699 393.514,50.128 393.791,54.188 C393.975,55.941 395.268,58.433 396.837,59.171 C398.497,60.094 402.281,60.278 404.865,60.278 C412.155,60.278 418.523,56.218 418.523,46.713 Z M375.889,0.388 C376.811,0.388 379.579,0.664 386.685,0.664 C393.422,0.664 398.774,0.48 405.326,0.48 C413.354,0.48 424.428,3.34 424.428,15.337 C424.428,21.243 420.275,25.95 414.831,28.257 C414.555,28.349 414.555,28.533 414.831,28.625 C422.582,30.564 429.412,35.362 429.412,44.405 C429.412,53.265 423.875,58.894 415.846,62.401 C410.955,64.523 404.865,65.261 398.682,65.261 C393.975,65.261 381.333,64.708 374.32,64.893 C373.582,64.615 374.966,61.293 375.611,60.74 C377.273,60.647 378.564,60.555 380.318,60.001 C382.81,59.356 383.086,58.617 383.455,54.834 C383.64,51.604 383.64,40.16 383.64,32.04 C383.64,20.874 383.733,13.307 383.64,9.616 C383.548,6.756 382.533,5.832 380.503,5.278 C378.933,5.002 376.35,4.632 374.227,4.356 C373.765,3.894 375.334,0.756 375.889,0.388 Z M322.641,57.787 C324.857,59.539 329.194,60.277 333.07,60.277 C338.053,60.277 343.036,59.356 347.835,55.017 C352.726,50.589 356.14,43.76 356.14,32.871 C356.14,22.442 352.172,13.952 344.051,8.97 C339.437,6.108 333.531,4.91 326.702,4.91 C324.672,4.91 322.734,5.002 321.535,5.555 C321.257,5.74 320.612,6.57 320.612,7.031 C320.427,8.877 320.427,23.088 320.427,31.394 C320.427,39.976 320.427,51.973 320.612,53.357 C320.612,54.742 321.257,56.864 322.642,57.787 L322.641,57.787 Z M301.693,0.387 C303.447,0.387 310.183,0.664 313.413,0.664 C319.228,0.664 323.38,0.388 334.361,0.388 C343.589,0.388 351.341,2.879 356.878,7.585 C363.614,13.399 367.122,21.428 367.122,31.209 C367.122,45.144 360.754,53.173 354.386,57.787 C348.02,62.493 339.714,65.261 327.902,65.261 C321.627,65.261 310.83,65.077 301.878,64.984 L301.786,64.984 C301.325,64.154 302.524,60.924 303.262,60.832 C305.662,60.555 306.308,60.462 307.508,60.002 C309.445,59.263 309.815,58.248 310.092,54.834 C310.368,48.466 310.276,40.807 310.276,32.132 C310.276,25.95 310.368,13.86 310.183,9.984 C309.907,6.755 308.523,5.924 305.754,5.37 C304.37,5.094 302.524,4.724 299.941,4.448 C299.571,3.801 301.232,0.941 301.693,0.388 L301.693,0.387 Z" id="Shape" fill="#8E714E"></path>
                <path d="M190.033,61.385 C187.726,61.108 186.065,60.74 184.035,59.817 C183.758,59.632 183.296,58.71 183.296,58.34 C183.112,55.11 183.112,45.882 183.112,39.7 C183.112,34.716 182.282,30.379 180.159,27.334 C177.667,23.826 174.069,21.797 169.454,21.797 C165.394,21.797 159.949,24.565 155.427,28.441 C155.335,28.533 154.597,29.18 154.689,28.164 C154.689,27.149 154.874,25.119 154.966,23.734 C155.059,22.442 154.32,21.797 154.32,21.797 C151.367,23.273 143.062,25.211 140.016,25.487 C137.802,25.95 137.248,28.072 139.556,28.81 L139.648,28.81 C142.138,29.548 143.8,30.379 145.091,31.21 C146.014,31.948 145.922,32.963 145.922,33.794 C146.014,40.714 146.014,51.327 145.738,57.141 C145.646,59.448 145,60.278 143.338,60.647 L143.523,60.555 C142.231,60.832 141.216,61.108 139.647,61.293 C139.093,61.847 139.093,64.8 139.647,65.446 C140.662,65.446 146.014,65.169 150.445,65.169 C156.535,65.169 159.673,65.446 161.241,65.446 C161.887,64.708 162.072,61.939 161.703,61.293 C159.949,61.201 158.657,61.017 157.458,60.647 C155.797,60.277 155.335,59.448 155.242,57.51 C155.059,52.618 155.059,42.283 155.059,35.27 C155.059,33.332 155.612,32.409 156.165,31.855 C158.288,30.01 161.703,28.718 164.748,28.718 C167.701,28.718 169.638,29.641 171.115,30.841 C173.145,32.501 173.791,34.901 174.068,36.654 C174.529,40.622 174.345,48.466 174.345,55.295 C174.345,58.986 174.068,59.909 172.685,60.37 C172.038,60.647 170.377,61.017 168.439,61.2 C167.793,61.847 167.978,64.708 168.439,65.354 C171.115,65.354 174.253,65.077 178.867,65.077 C184.588,65.077 188.28,65.354 189.757,65.354 C190.217,64.8 190.402,62.124 190.033,61.385 Z M215.595,26.135 C210.705,26.135 207.659,29.918 207.659,35.823 C207.659,41.822 210.335,48.743 217.902,48.743 C219.194,48.743 221.594,48.189 222.7,46.897 C224.454,45.237 225.654,41.914 225.654,38.407 C225.654,30.748 221.87,26.134 215.595,26.134 L215.595,26.135 Z M214.949,66.922 C213.104,66.922 211.811,67.476 210.981,67.938 C207.105,70.428 205.352,72.828 205.352,75.69 C205.352,78.365 206.367,80.487 208.582,82.333 C211.258,84.64 214.949,85.748 219.655,85.748 C229.068,85.748 233.221,80.672 233.221,75.69 C233.221,72.182 231.467,69.875 227.869,68.584 C225.285,67.476 220.579,66.922 214.949,66.922 Z M215.595,90.916 C209.966,90.916 205.905,89.716 202.399,87.04 C198.984,84.456 197.508,80.58 197.508,77.904 C197.508,77.166 197.693,75.135 199.354,73.29 C200.368,72.182 202.584,70.06 207.844,66.461 C208.028,66.369 208.12,66.277 208.12,66.091 C208.12,65.907 207.935,65.722 207.751,65.631 C203.414,63.97 202.122,61.293 201.752,59.817 L201.752,59.632 C201.661,59.078 201.476,58.525 202.307,57.971 C202.953,57.51 203.876,56.956 204.89,56.311 C206.459,55.387 208.12,54.372 209.135,53.541 C209.32,53.357 209.32,53.173 209.32,52.988 C209.32,52.803 209.135,52.618 208.95,52.527 C202.492,50.404 199.262,45.605 199.262,38.407 C199.262,33.701 201.384,29.456 205.167,26.78 C207.751,24.75 214.211,22.258 218.456,22.258 L218.733,22.258 C223.07,22.35 225.469,23.273 228.883,24.473 C230.729,25.119 232.483,25.395 234.883,25.395 C238.481,25.395 240.05,24.288 241.341,22.997 C241.434,23.181 241.619,23.643 241.711,24.842 C241.803,26.042 241.434,27.795 240.511,29.087 C239.773,30.102 238.112,30.841 236.451,30.841 L235.989,30.841 C234.328,30.656 233.589,30.471 233.589,30.471 L233.221,30.656 C233.129,30.841 233.221,31.025 233.313,31.302 L233.406,31.487 C233.59,32.317 233.959,34.808 233.959,35.455 C233.959,43.022 230.914,46.343 227.684,48.835 C224.546,51.142 220.948,52.618 216.887,52.988 C216.795,52.988 216.427,52.988 215.595,53.08 C215.134,53.08 214.488,53.173 214.395,53.173 L214.303,53.173 C213.565,53.357 211.72,54.28 211.72,55.848 C211.72,57.232 212.55,58.894 216.518,59.171 C217.348,59.263 218.178,59.263 219.102,59.356 C224.362,59.724 230.914,60.186 233.959,61.201 C238.204,62.769 240.88,66.553 240.88,71.075 C240.88,77.905 235.99,84.272 227.869,88.239 C223.901,89.993 219.932,90.916 215.595,90.916 Z M268.195,26.596 C266.258,26.596 264.504,27.056 263.212,27.979 C259.614,30.194 257.768,34.624 257.768,41.083 C257.768,53.173 263.858,61.663 272.533,61.663 C275.117,61.663 277.147,60.924 278.9,59.448 C281.576,57.232 282.961,52.803 282.961,46.62 C282.961,34.624 276.962,26.595 268.196,26.595 L268.195,26.596 Z M269.857,66.092 C254.169,66.092 248.54,54.557 248.54,43.76 C248.54,36.193 251.585,30.379 257.675,26.226 C262.013,23.55 267.181,22.074 271.795,22.074 C283.791,22.074 292.189,30.656 292.189,43.022 C292.189,51.419 288.867,58.063 282.499,62.124 C279.454,64.154 274.194,66.092 269.856,66.092 L269.857,66.092 Z M105.411,26.595 C103.473,26.595 101.72,27.056 100.427,27.979 C96.829,30.194 94.983,34.624 94.983,41.083 C94.983,53.173 101.073,61.663 109.748,61.663 C112.332,61.663 114.362,60.924 116.116,59.448 C118.791,57.232 120.176,52.803 120.176,46.62 C120.176,34.624 114.27,26.595 105.411,26.595 Z M107.072,66.092 C91.384,66.092 85.755,54.557 85.755,43.76 C85.755,36.193 88.8,30.379 94.89,26.226 C99.228,23.55 104.396,22.074 109.01,22.074 C121.007,22.074 129.404,30.656 129.404,43.022 C129.404,51.419 126.082,58.063 119.714,62.124 C116.761,64.154 111.501,66.092 107.072,66.092 Z M1.594,65.169 C1.409,64.893 1.224,64.062 1.317,63.047 C1.317,62.308 1.502,61.847 1.594,61.663 C3.532,61.385 4.547,61.108 5.654,60.832 C7.5,60.37 8.238,59.356 8.33,57.049 C8.608,51.512 8.608,40.991 8.515,33.701 L8.515,33.516 C8.515,32.686 8.515,31.67 7.5,30.932 C6.023,30.01 4.27,29.18 1.963,28.532 C1.133,28.257 0.579,27.795 0.671,27.242 C0.671,26.688 1.225,26.042 2.425,25.857 C5.47,25.58 13.405,23.643 16.543,22.258 C16.728,22.442 17.005,22.997 17.005,23.735 L16.913,24.749 C16.82,25.765 16.728,26.965 16.728,28.164 C16.728,28.533 17.098,28.81 17.466,28.81 C17.651,28.81 17.836,28.718 18.02,28.625 C23.926,24.011 29.278,22.35 32.046,22.35 C36.569,22.35 40.076,24.473 42.752,28.902 C42.936,29.18 43.121,29.272 43.398,29.272 C43.582,29.272 43.858,29.18 43.951,28.995 C49.396,24.842 54.841,22.35 58.439,22.35 C67.021,22.35 72.097,28.718 72.097,39.515 C72.097,42.56 72.097,46.528 72.005,50.128 C72.005,53.357 71.913,56.31 71.913,58.433 C71.913,58.893 72.558,60.37 73.573,60.647 C74.865,61.293 76.619,61.57 78.926,61.939 L79.018,61.939 C79.203,62.585 78.834,64.984 78.465,65.446 C77.911,65.446 77.08,65.446 76.158,65.354 C73.821976,65.232115 71.483201,65.170428 69.144,65.169 C63.423,65.169 60.47,65.261 57.608,65.446 C57.425,64.708 57.332,62.493 57.608,61.939 C59.27,61.663 60.1,61.385 61.116,61.109 C62.962,60.555 63.423,59.724 63.516,57.325 C63.516,55.572 63.884,40.622 63.33,37.023 C62.777,33.332 60.008,28.995 53.917,28.995 C51.61,28.995 48.012,29.918 44.505,32.593 C44.321,32.778 44.135,33.239 44.135,33.516 L44.135,33.609 C44.505,35.546 44.505,37.762 44.505,41.176 L44.505,47.174 C44.505,51.327 44.412,55.203 44.505,58.155 C44.505,60.186 45.705,60.647 46.72,61.017 C47.274,61.108 47.642,61.201 48.104,61.293 C48.934,61.478 49.765,61.663 51.057,61.939 C51.242,62.309 51.242,63.508 50.965,64.523 C50.872,65.077 50.687,65.353 50.595,65.446 C47.458,65.354 44.228,65.261 39.522,65.261 C38.138,65.261 35.738,65.354 33.708,65.354 C32.046,65.354 30.478,65.446 29.556,65.446 C29.463,65.261 29.278,64.616 29.278,63.6 C29.278,62.77 29.463,62.124 29.648,61.939 C30.109,61.847 30.478,61.755 30.94,61.755 C32.046,61.57 32.97,61.385 33.892,61.201 C35.462,60.74 36.015,59.909 36.107,57.879 C36.384,53.265 36.661,40.069 36.015,36.746 C34.908,31.394 31.863,28.718 26.971,28.718 C24.111,28.718 20.511,30.102 17.559,32.318 C17.097,32.686 16.728,33.608 16.728,34.439 L16.728,39.884 C16.728,46.528 16.728,54.834 16.82,58.433 C16.913,59.539 17.281,60.832 19.404,61.293 C19.866,61.385 20.604,61.57 21.527,61.663 L23.187,61.939 C23.373,62.493 23.28,64.708 22.911,65.446 C21.988,65.446 20.881,65.354 19.588,65.354 C17.651,65.261 15.159,65.169 12.391,65.169 C9.161,65.169 6.854,65.261 5.008,65.354 C3.716,65.169 2.701,65.169 1.594,65.169 Z" id="Shape" fill="#442D22"></path>
            </g>
            <g id="Group" transform="translate(120.000000, 0.000000)">
                <path d="M105.159,426.950943 L93.81,423.067395 C93.81,423.067395 95.196,365.141566 74.43,360.984699 C60.591,344.906872 76.65,-320.852706 126.48,358.7651 C126.48,358.7651 109.314,367.355158 106.269,382.048363 C102.945,396.462242 105.159,426.950943 105.159,426.950943 Z" id="Shape" fill="#FFFFFF"></path>
                <path d="M105.159,426.950943 L93.81,423.067395 C93.81,423.067395 95.196,365.141566 74.43,360.984699 C60.591,344.906872 76.65,-320.852706 126.48,358.7651 C126.48,358.7651 109.314,367.355158 106.269,382.048363 C102.945,396.462242 105.159,426.950943 105.159,426.950943 Z" id="Shape" fill="#A6A385"></path>
                <path d="M111.252,370.962382 C111.252,370.962382 210.642,305.548785 187.383,169.456427 C164.961,70.5115662 112.083,38.0825932 106.269,25.6089871 C99.903,16.7396014 93.81,1.22042907 93.81,1.22042907 L97.965,276.444706 C97.965,276.724033 89.382,360.705372 111.255,370.965386" id="Shape" fill="#FFFFFF"></path>
                <path d="M111.252,370.962382 C111.252,370.962382 210.642,305.548785 187.383,169.456427 C164.961,70.5115662 112.083,38.0825932 106.269,25.6089871 C99.903,16.7396014 93.81,1.22042907 93.81,1.22042907 L97.965,276.444706 C97.965,276.724033 89.382,360.705372 111.255,370.965386" id="Shape" fill="#499D4A"></path>
                <path d="M87.999,374.563599 C87.999,374.563599 -5.301,310.813951 0.237,198.56351 C5.496,86.3100657 71.385,31.1534795 84.12,21.175796 C92.427,12.3064103 92.703,8.97851348 93.258,0.109127784 C99.072,12.5827339 97.965,186.645555 98.793,207.153569 C101.283,286.146066 94.365,359.600077 87.999,374.563599 Z" id="Shape" fill="#FFFFFF"></path>
                <path d="M87.999,374.563599 C87.999,374.563599 -5.301,310.813951 0.237,198.56351 C5.496,86.3100657 71.385,31.1534795 84.12,21.175796 C92.427,12.3064103 92.703,8.97851348 93.258,0.109127784 C99.072,12.5827339 97.965,186.645555 98.793,207.153569 C101.283,286.146066 94.365,359.600077 87.999,374.563599 Z" id="Shape" fill="#58AA50"></path>
            </g>
        </g>
    </g>
</svg>