<?xml version="1.0" encoding="UTF-8"?>
<svg width="135px" height="92px" viewBox="0 0 135 92" version="1.1" xmlns="http://www.w3.org/2000/svg" xmlns:xlink="http://www.w3.org/1999/xlink">
    <!-- Generator: Sketch 50.2 (55047) - http://www.bohemiancoding.com/sketch -->
    <title>Group</title>
    <desc>Created with Sketch.</desc>
    <defs></defs>
    <g id="Page-1" stroke="none" stroke-width="1" fill="none" fill-rule="evenodd">
        <g id="mysql" transform="translate(-26.000000, -24.000000)" fill-rule="nonzero">
            <g id="Group" transform="translate(26.000000, 24.000000)">
                <path d="M33.054,83.583 L27.879,83.583 C27.696,74.848 27.192,66.636 26.368,58.941 L26.322,58.941 L18.443,83.583 L14.503,83.583 L6.671,58.941 L6.626,58.941 C6.045,66.329 5.679,74.543 5.527,83.583 L0.81,83.583 C1.114,72.59 1.878,62.284 3.099,52.664 L9.513,52.664 L16.978,75.383 L17.024,75.383 L24.535,52.664 L30.672,52.664 C32.016,63.932 32.81,74.239 33.054,83.583 Z M55.497,60.771 C53.39,72.205 50.61,80.513 47.16,85.699 C44.472,89.691 41.527,91.689 38.32,91.689 C37.465,91.689 36.41,91.431 35.16,90.919 L35.16,88.162 C35.771,88.25 36.488,88.3 37.312,88.3 C38.81,88.3 40.014,87.888 40.932,87.062 C42.03,86.056 42.579,84.925 42.579,83.674 C42.579,82.816 42.151,81.062 41.297,78.406 L35.618,60.77 L40.702,60.77 L44.778,73.96 C45.694,76.955 46.076,79.046 45.923,80.237 C48.152,74.284 49.709,67.793 50.596,60.769 L55.497,60.769 L55.497,60.771 Z" id="Shape" fill="#5D87A1"></path>
                <path d="M124.382,83.583 L109.682,83.583 L109.682,52.664 L114.627,52.664 L114.627,79.777 L124.382,79.777 L124.382,83.583 Z M105.834,84.33 L100.15,81.525 C100.654,81.111 101.136,80.663 101.57,80.144 C103.986,77.306 105.191,73.109 105.191,67.55 C105.191,57.321 101.177,52.204 93.146,52.204 C89.208,52.204 86.136,53.502 83.939,56.099 C81.525,58.939 80.32,63.121 80.32,68.65 C80.32,74.085 81.388,78.072 83.525,80.601 C85.48,82.892 88.427,84.039 92.368,84.039 C93.838,84.039 95.187,83.859 96.416,83.496 L103.816,87.804 L105.834,84.33 Z M87.421,77.396 C86.169,75.382 85.543,72.148 85.543,67.689 C85.543,59.904 87.908,56.007 92.643,56.007 C95.118,56.007 96.932,56.939 98.092,58.799 C99.342,60.816 99.971,64.021 99.971,68.418 C99.971,76.267 97.604,80.192 92.872,80.192 C90.396,80.193 88.582,79.264 87.421,77.396 Z M78.165,75.013 C78.165,77.635 77.203,79.786 75.281,81.471 C73.357,83.149 70.777,83.99 67.544,83.99 C64.52,83.99 61.588,83.024 58.75,81.102 L60.079,78.447 C62.521,79.67 64.732,80.278 66.717,80.278 C68.58,80.278 70.036,79.865 71.092,79.046 C72.147,78.224 72.776,77.071 72.776,75.613 C72.776,73.776 71.495,72.206 69.145,70.891 C66.978,69.701 62.644,67.213 62.644,67.213 C60.295,65.501 59.119,63.663 59.119,60.635 C59.119,58.129 59.996,56.106 61.751,54.567 C63.508,53.022 65.775,52.252 68.554,52.252 C71.424,52.252 74.033,53.021 76.383,54.543 L75.191,57.199 C73.181,56.345 71.197,55.918 69.24,55.918 C67.655,55.918 66.431,56.299 65.58,57.064 C64.722,57.826 64.193,58.801 64.193,59.997 C64.193,61.825 65.501,63.415 67.915,64.756 C70.111,65.948 74.553,68.479 74.553,68.479 C76.962,70.188 78.165,72.009 78.165,75.013 Z" id="Shape" fill="#F8981D"></path>
                <path d="M130.59,42.308 C127.6,42.232 125.285,42.533 123.342,43.355 C122.781,43.579 121.889,43.579 121.811,44.288 C122.114,44.588 122.149,45.072 122.412,45.486 C122.86,46.233 123.641,47.238 124.354,47.762 C125.137,48.362 125.923,48.956 126.747,49.479 C128.2,50.378 129.847,50.901 131.263,51.797 C132.088,52.318 132.908,52.992 133.734,53.553 C134.14,53.852 134.4,54.337 134.927,54.524 L134.927,54.41 C134.663,54.074 134.588,53.588 134.329,53.214 L133.207,52.132 C132.123,50.676 130.776,49.405 129.323,48.361 C128.127,47.537 125.511,46.417 125.026,45.039 L124.95,44.963 C125.772,44.886 126.747,44.588 127.528,44.359 C128.799,44.024 129.958,44.1 131.262,43.765 C131.862,43.615 132.457,43.427 133.059,43.242 L133.059,42.905 C132.383,42.232 131.901,41.338 131.19,40.702 C129.288,39.059 127.192,37.452 125.026,36.107 C123.866,35.358 122.374,34.876 121.139,34.239 C120.694,34.014 119.944,33.903 119.682,33.529 C119.012,32.707 118.635,31.625 118.149,30.652 C117.069,28.599 116.02,26.321 115.088,24.15 C114.414,22.694 114.004,21.24 113.182,19.893 C109.332,13.543 105.151,9.697 98.725,5.922 C97.344,5.136 95.701,4.801 93.946,4.389 L91.143,4.241 C90.545,3.979 89.946,3.268 89.424,2.932 C87.292,1.588 81.803,-1.325 80.235,2.521 C79.225,4.952 81.729,7.342 82.589,8.575 C83.224,9.431 84.047,10.405 84.491,11.377 C84.754,12.012 84.828,12.686 85.091,13.357 C85.689,15.001 86.248,16.83 87.034,18.364 C87.444,19.146 87.891,19.968 88.415,20.676 C88.715,21.09 89.237,21.273 89.351,21.948 C88.83,22.692 88.789,23.815 88.49,24.749 C87.146,28.97 87.671,34.199 89.576,37.301 C90.172,38.235 91.594,40.291 93.496,39.503 C95.18,38.831 94.807,36.702 95.291,34.835 C95.402,34.384 95.329,34.088 95.553,33.792 L95.553,33.865 C96.074,34.91 96.6,35.917 97.083,36.965 C98.242,38.794 100.26,40.7 101.941,41.967 C102.836,42.643 103.545,43.799 104.666,44.212 L104.666,44.1 L104.592,44.1 C104.365,43.765 104.033,43.615 103.735,43.355 C103.061,42.682 102.315,41.86 101.792,41.114 C100.226,39.021 98.84,36.704 97.61,34.313 C97.008,33.153 96.489,31.885 96.004,30.727 C95.778,30.28 95.778,29.606 95.403,29.381 C94.841,30.202 94.022,30.913 93.612,31.919 C92.901,33.528 92.827,35.507 92.563,37.565 L92.416,37.637 C91.226,37.338 90.812,36.107 90.36,35.062 C89.241,32.408 89.053,28.148 90.024,25.086 C90.284,24.303 91.409,21.837 90.96,21.091 C90.735,20.376 89.987,19.969 89.577,19.406 C89.095,18.698 88.567,17.802 88.231,17.016 C87.335,14.925 86.884,12.608 85.919,10.518 C85.468,9.544 84.685,8.536 84.051,7.639 C83.339,6.631 82.556,5.921 81.993,4.726 C81.807,4.315 81.546,3.643 81.845,3.196 C81.918,2.896 82.07,2.784 82.368,2.709 C82.852,2.3 84.235,2.82 84.72,3.045 C86.105,3.605 87.263,4.128 88.419,4.912 C88.942,5.287 89.503,5.997 90.174,6.184 L90.96,6.184 C92.153,6.444 93.498,6.256 94.621,6.594 C96.6,7.23 98.393,8.163 100.001,9.17 C104.894,12.273 108.929,16.682 111.653,21.948 C112.1,22.806 112.29,23.592 112.698,24.487 C113.485,26.319 114.458,28.187 115.239,29.98 C116.024,31.735 116.772,33.527 117.893,34.985 C118.452,35.769 120.698,36.18 121.705,36.591 C122.45,36.926 123.61,37.224 124.282,37.635 C125.553,38.418 126.819,39.317 128.014,40.178 C128.609,40.626 130.479,41.56 130.59,42.308 M92.484,9.844 C91.9682545,9.83863919 91.4540848,9.90185954 90.955,10.032 L90.955,10.107 L91.027,10.107 C91.328,10.704 91.851,11.118 92.224,11.639 C92.525,12.238 92.786,12.832 93.081,13.43 L93.153,13.356 C93.68,12.983 93.942,12.385 93.942,11.488 C93.715,11.224 93.68,10.966 93.491,10.704 C93.271,10.33 92.786,10.144 92.484,9.844" id="Shape" fill="#5D87A1"></path>
                <path d="M134.148,83.578 L134.922,83.578 L134.922,79.79 L133.761,79.79 L132.814,82.375 L131.785,79.79 L130.667,79.79 L130.667,83.578 L131.398,83.578 L131.398,80.696 L131.439,80.696 L132.517,83.578 L133.074,83.578 L134.148,80.696 L134.148,83.578 Z M127.913,83.578 L128.732,83.578 L128.732,80.432 L129.804,80.432 L129.804,79.789 L126.796,79.789 L126.796,80.432 L127.911,80.432 L127.913,83.578 Z" id="Shape" fill="#F8981D"></path>
            </g>
        </g>
    </g>
</svg>