<svg version="1.1" id="Layer_1" xmlns="http://www.w3.org/2000/svg" xmlns:xlink="http://www.w3.org/1999/xlink" x="0px" y="0px"
	 viewBox="0 0 136.2 136.2" enable-background="new 0 0 136.2 136.2" xml:space="preserve">
<linearGradient id="SVGID_1_" gradientUnits="userSpaceOnUse" x1="-23.0771" y1="16.1932" x2="132.897" y2="104.9712">
	<stop  offset="0" style="stop-color:#6B6B6B"/>
	<stop  offset="1" style="stop-color:#131212"/>
</linearGradient>
<circle fill="url(#SVGID_1_)" cx="68.1" cy="68.1" r="68.1"/>
<g>
	<g>
		<linearGradient id="SVGID_2_" gradientUnits="userSpaceOnUse" x1="68.7681" y1="31.1275" x2="67.3171" y2="105.4199">
			<stop  offset="0" style="stop-color:#FDB829"/>
			<stop  offset="0.2111" style="stop-color:#FCB428"/>
			<stop  offset="0.4826" style="stop-color:#FBA825"/>
			<stop  offset="0.7856" style="stop-color:#F89621"/>
			<stop  offset="1" style="stop-color:#F6861F"/>
		</linearGradient>
		<path fill="url(#SVGID_2_)" d="M86.1,49.7c-1.7-2.1-3.8-3.7-6.5-4.9c-2.7-1.2-5.2-1.8-7.7-1.8c-1.3,0-2.6,0.1-3.9,0.3
			c-1.3,0.2-2.5,0.6-3.5,1.3c-1.1,0.6-1.9,1.4-2.6,2.4c-0.7,1-1.1,2.3-1.1,3.8c0,1.3,0.3,2.4,0.8,3.3c0.6,0.9,1.4,1.7,2.5,2.3
			c1.1,0.7,2.4,1.3,3.9,1.8c1.5,0.6,3.2,1.1,5.1,1.7c2.7,0.9,5.5,1.9,8.4,2.9c2.9,1.1,5.6,2.5,8,4.2c2.4,1.8,4.4,4,6,6.6
			c1.6,2.6,2.4,5.9,2.4,9.8c0,4.5-0.8,8.4-2.5,11.6c-1.7,3.3-4,6-6.8,8.1c-2.9,2.1-6.1,3.7-9.8,4.7c-3.7,1-7.5,1.5-11.4,1.5
			c-5.7,0-11.2-1-16.6-2.9c-5.3-1.9-9.8-4.7-13.3-8.3L50,85.6c2,2.4,4.5,4.3,7.7,5.9c3.2,1.6,6.4,2.4,9.5,2.4c1.4,0,2.8-0.1,4.2-0.4
			c1.4-0.3,2.5-0.8,3.5-1.4c1-0.7,1.8-1.5,2.4-2.6c0.6-1.1,0.9-2.4,0.9-4c0-1.5-0.4-2.7-1.1-3.8c-0.8-1-1.8-2-3.2-2.8
			c-1.4-0.8-3.1-1.6-5.2-2.3c-2.1-0.7-4.4-1.5-7-2.3c-2.6-0.8-5.1-1.8-7.5-2.9c-2.4-1.1-4.6-2.5-6.5-4.2c-1.9-1.7-3.5-3.8-4.6-6.3
			c-1.2-2.5-1.7-5.5-1.7-9c0-4.3,0.9-8.1,2.7-11.1c1.8-3.1,4.2-5.6,7.1-7.6c2.9-2,6.2-3.4,9.9-4.4c3.7-0.9,7.4-1.4,11.2-1.4
			c4.5,0,9.1,0.8,13.8,2.4c4.7,1.6,8.8,4,12.3,7.2L86.1,49.7z"/>
	</g>
</g>
</svg>
