<svg version="1.1" id="Layer_1" xmlns="http://www.w3.org/2000/svg" xmlns:xlink="http://www.w3.org/1999/xlink" x="0px" y="0px"
	 viewBox="0 0 135.8 128.3" enable-background="new 0 0 135.8 128.3" xml:space="preserve">
<g>
	<g>
		<g>
			<polygon fill="#62AFE1" points="89.2,15.7 68.4,62.3 68.5,128.3 95.8,112.9 105.9,87.4 130.2,25.9 135.8,11.7 			"/>
		</g>
	</g>
	<g>
		<g>
			<g>
				<polygon fill="#2990CB" points="68.4,61 47.8,15.5 0,11.8 40.7,112.7 68.5,128.3 				"/>
			</g>
		</g>
	</g>
	<polygon fill="#E9E8E8" points="54.1,88.7 68.4,80.7 83,88.9 68.5,96.4 	"/>
	<g>
		<g>
			<polygon fill="#EAEAEA" points="135.8,11.7 116.3,0 88.9,15.5 108.7,26.9 			"/>
			<polygon fill="#EAEAEA" points="20.6,0 0,11.8 27.5,26.9 47.8,15.5 			"/>
		</g>
	</g>
	<g>
		<polygon fill="#61AFE0" points="47.8,15.5 27.5,26.9 54.1,88.7 68.4,80.7 68.4,61 		"/>
		<polygon fill="#2990CB" points="108.7,26.9 88.9,15.5 68.4,61 68.4,80.7 83,88.9 		"/>
	</g>
</g>
</svg>
